<svg width="37" height="39" viewBox="0 0 37 39" fill="none" xmlns="http://www.w3.org/2000/svg">
<path d="M34.8003 13.8639C33.7703 12.9957 32.6903 12.1461 31.6003 11.3339C30.8703 10.7831 29.7903 10.9045 29.2103 11.586C28.6303 12.2768 28.7503 13.2758 29.4803 13.8172C30.5203 14.5827 31.5403 15.3949 32.5203 16.2165C32.9803 16.6086 33.2403 17.1407 33.2403 17.7195C33.2403 18.2983 32.9803 18.8304 32.5203 19.2225C29.1403 22.0606 18.9703 28.3154 15.0503 30.4346C14.2403 30.8734 13.9603 31.8443 14.4303 32.6098C14.7503 33.1139 15.3203 33.4033 15.9003 33.4033C16.1903 33.4033 16.4803 33.338 16.7503 33.1886C20.8603 30.9574 31.2303 24.5812 34.7803 21.5938C35.9503 20.6042 36.6303 19.2039 36.6303 17.7288C36.6403 16.2538 35.9703 14.8441 34.8003 13.8639Z" fill="white"/>
<path d="M3.58011 9.09283C4.51011 9.22353 5.38011 8.64472 5.53011 7.77651C5.69011 6.82428 5.88011 5.86271 6.09011 4.92915C6.21011 4.37835 6.57011 3.92091 7.10011 3.63151C7.64011 3.3421 8.28011 3.27675 8.87011 3.46346C14.0801 5.05052 19.0501 7.23505 23.6601 9.95171C23.9401 10.1198 24.2601 10.1944 24.5701 10.1944C25.1301 10.1944 25.6901 9.93304 26.0101 9.45692C26.5101 8.71941 26.2801 7.73917 25.4801 7.26306C20.6301 4.4157 15.4001 2.11914 9.93011 0.448063C8.42011 -0.00938188 6.77011 0.149324 5.40011 0.886837C4.05011 1.61501 3.09011 2.85665 2.77011 4.27566C2.55011 5.26524 2.35011 6.27348 2.18011 7.27239C2.02011 8.1406 2.65011 8.9528 3.58011 9.09283Z" fill="white"/>
<path d="M16.8801 13.1733C17.3101 12.3985 16.9901 11.4369 16.1601 11.0355C15.4201 10.6807 14.6601 10.326 13.9001 9.98056C12.8601 9.51378 11.6501 9.57913 10.6601 10.1579C9.67008 10.7367 9.08008 11.7357 9.08008 12.8279V19.5682C9.08008 20.4458 9.84008 21.1553 10.7801 21.1553C11.7201 21.1553 12.4801 20.4458 12.4801 19.5682L12.4701 12.8653C13.1801 13.1827 13.8901 13.5188 14.5801 13.8455C15.4201 14.2563 16.4501 13.9482 16.8801 13.1733Z" fill="white"/>
<path d="M24.5003 17.4301C24.5303 16.3472 23.9703 15.3389 23.0003 14.7508C22.2903 14.312 21.5803 13.8826 20.8703 13.4811C20.0703 13.0237 19.0203 13.2571 18.5303 14.0039C18.0403 14.7508 18.2903 15.731 19.0903 16.1885C19.7503 16.5619 20.4203 16.9633 21.0803 17.3741L14.9203 20.8096C14.1103 21.2577 13.8503 22.2379 14.3403 22.9848C14.8203 23.741 15.8703 23.9837 16.6703 23.5262L22.8603 20.0627C23.8603 19.5119 24.4703 18.5224 24.5003 17.4301Z" fill="white"/>
<path d="M2.2002 22.3041C2.2002 22.3415 2.20019 22.3696 2.21019 22.407V22.2012C2.20019 22.2386 2.2002 22.2667 2.2002 22.3041Z" fill="white"/>
<path d="M3.77024 10.541C1.82024 10.541 0.240234 12.016 0.240234 13.8271C0.240234 15.1248 1.04023 16.2451 2.21023 16.7772V19.1671V22.1919V22.3972C2.27023 23.1534 2.94024 23.7509 3.77024 23.7509C4.63024 23.7509 5.33023 23.0974 5.33023 22.2945V19.1578V16.7679C5.40023 16.7399 5.46024 16.6932 5.53024 16.6558C6.58024 16.0864 7.30023 15.0314 7.30023 13.8085C7.29023 12.016 5.71024 10.541 3.77024 10.541ZM5.33023 14.2286C5.14023 14.8727 4.52024 15.3395 3.77024 15.3395C3.02024 15.3395 2.40023 14.8634 2.21023 14.2286C2.17023 14.0979 2.15023 13.9672 2.15023 13.8271C2.15023 12.9963 2.88024 12.3148 3.77024 12.3148C4.66023 12.3148 5.39023 12.9869 5.39023 13.8271C5.38023 13.9672 5.36023 14.0979 5.33023 14.2286Z" fill="white"/>
<path d="M10.5305 22.8906C9.67045 22.8906 8.97045 23.5441 8.97045 24.347V29.9764V30.4431V32.637C8.97045 33.1038 8.70045 33.5332 8.27045 33.7666L5.33045 35.3537V29.9764V27.6238V27.3811C5.26045 26.6342 4.60045 26.0367 3.78045 26.0367C2.92045 26.0367 2.22045 26.6902 2.21045 27.4931V27.5024V30.4338V36.642C2.21045 37.4168 2.65045 38.1357 3.37045 38.5184C3.73045 38.7145 4.13045 38.8078 4.53045 38.8078C4.93045 38.8078 5.33045 38.7145 5.69045 38.5184L9.83045 36.2872C11.2205 35.5404 12.0905 34.1307 12.0905 32.6277V30.4338V29.967V24.3376C12.0905 23.5441 11.3905 22.8906 10.5305 22.8906Z" fill="white"/>
</svg>
