<svg width="19" height="21" viewBox="0 0 19 21" fill="none" xmlns="http://www.w3.org/2000/svg">
<path d="M1.49805 0C1.67402 0.000135914 1.84683 0.0467035 1.99905 0.135L18.003 9.401C18.1546 9.4889 18.2804 9.61508 18.3678 9.76689C18.4552 9.91869 18.5013 10.0908 18.5013 10.266C18.5013 10.4412 18.4552 10.6133 18.3678 10.7651C18.2804 10.9169 18.1546 11.0431 18.003 11.131L1.99905 20.397C1.84708 20.485 1.67462 20.5314 1.49902 20.5316C1.32343 20.5317 1.15088 20.4857 0.998741 20.398C0.846599 20.3103 0.720227 20.1841 0.632334 20.0321C0.544441 19.8801 0.498125 19.7076 0.498047 19.532V1C0.498047 0.734784 0.603404 0.48043 0.79094 0.292893C0.978476 0.105357 1.23283 0 1.49805 0ZM9.79005 11.68L5.29205 16.178L10.991 12.879L9.79105 11.679L9.79005 11.68ZM2.49805 4.384V16.144L8.37805 10.264L2.49805 4.384ZM12.782 8.686L11.204 10.266L12.782 11.843L15.506 10.266L12.781 8.687L12.782 8.686ZM5.29205 4.35L9.79205 8.85L10.991 7.65L5.29205 4.35Z" fill="white"/>
</svg>
